<svg id="Layer_1" data-name="Layer 1" xmlns="http://www.w3.org/2000/svg" xmlns:xlink="http://www.w3.org/1999/xlink" viewBox="0 0 80.22 80"><defs><style>.cls-1{fill:url(#linear-gradient);}.cls-2{fill:url(#linear-gradient-2);}.cls-3,.cls-4{fill:#fff;}.cls-4{opacity:0.5;isolation:isolate;}.cls-5{fill:url(#linear-gradient-3);}.cls-6{fill:url(#linear-gradient-4);}</style><linearGradient id="linear-gradient" x1="2.64" y1="77.36" x2="77.36" y2="2.64" gradientTransform="matrix(1, 0, 0, -1, 0, 80)" gradientUnits="userSpaceOnUse"><stop offset="0" stop-color="#1b3745"/><stop offset="0.99" stop-color="#27475c"/></linearGradient><linearGradient id="linear-gradient-2" x1="65.03" y1="47.82" x2="65.03" y2="47.82" gradientTransform="matrix(1, 0, 0, -1, 0, 80)" gradientUnits="userSpaceOnUse"><stop offset="0.01" stop-color="#fff" stop-opacity="0"/><stop offset="0.08" stop-color="#fff" stop-opacity="0.02"/><stop offset="0.6" stop-color="#fff"/><stop offset="0.93" stop-color="#fff"/></linearGradient><linearGradient id="linear-gradient-3" x1="36.31" y1="47.53" x2="51.1" y2="12.68" xlink:href="#linear-gradient-2"/><linearGradient id="linear-gradient-4" x1="43.96" y1="32.45" x2="29.16" y2="67.31" xlink:href="#linear-gradient-2"/></defs><title>watsc_appicon_80</title><path class="cls-1" d="M70.95,80H9.05A9.2,9.2,0,0,1-.11,70.84V9.16A9.2,9.2,0,0,1,9.05,0h61.9a9.19,9.19,0,0,1,9.16,9.16V70.84A9.2,9.2,0,0,1,70.95,80Z" transform="translate(0.11)"/><path class="cls-2" d="M65,32.18h0Z" transform="translate(0.11)"/><path class="cls-3" d="M59.3,32.17c-4.05,0-4.54,14.48-8.72,14.48H56.3c4.17,0,4.67-14.49,8.74-14.49H59.3" transform="translate(0.11)"/><path class="cls-4" d="M47.45,27.42c-1.1,0-2,1.83-2.71,4.53h0c1.77,5.69,3,14.7,5.83,14.7h0c1.26,0,2.19-1.34,3-3.2C51.49,38,50.41,27.59,47.45,27.42Z" transform="translate(0.11)"/><path class="cls-3" d="M47.45,27.42H41.72c-2,0-3.25,6.26-4.46,12.58h0C36,46.32,34.83,52.58,32.81,52.58h5.73c2,0,3.25-6.26,4.46-12.58h0C44.21,33.68,45.43,27.42,47.45,27.42Z" transform="translate(0.11)"/><path class="cls-3" d="M21,47.83c4.05,0,4.54-14.48,8.72-14.48H24c-4.17,0-4.71,14.49-8.76,14.49H21" transform="translate(0.11)"/><path class="cls-3" d="M21,47.83c4.05,0,4.54-14.48,8.72-14.48H24c-4.17,0-4.71,14.49-8.76,14.49H21" transform="translate(0.11)"/><path class="cls-4" d="M32.81,52.58c1.1,0,2-1.83,2.71-4.53h0c-1.77-5.69-3-14.7-5.83-14.7h0c-1.26,0-2.19,1.34-3,3.2C28.77,42,29.85,52.41,32.81,52.58Z" transform="translate(0.11)"/><path class="cls-5" d="M65.08,32.17h0a2.65,2.65,0,0,0-2.12,1.59c1.68,1.92,1.73,6.1,1.73,6.26a24.71,24.71,0,0,1-24.74,24.7A25,25,0,0,1,16.48,47.85h-1.3c-0.37,0-3.42-.14-4.32-4.57A29,29,0,0,0,39.92,69.51a29.77,29.77,0,0,0,29.7-28.93V40.53c0.43-8.15-4.08-8.36-4.54-8.36" transform="translate(0.11)"/><path class="cls-6" d="M40.34,10.5a29.77,29.77,0,0,0-29.7,28.93v0.05c-0.43,8.14,4.08,8.35,4.54,8.35h0a2.7,2.7,0,0,0,2.13-1.6c-1.66-1.94-1.72-6.09-1.72-6.23A24.71,24.71,0,0,1,40.34,15.3,25.07,25.07,0,0,1,63.8,32.18h1.29c0.37,0,3.42.14,4.32,4.57A29,29,0,0,0,40.34,10.5" transform="translate(0.11)"/></svg>